<?xml version="1.0" encoding="UTF-8" standalone="no"?>
<!-- Created with Inkscape (http://www.inkscape.org/) -->
<svg xmlns:inkscape="http://www.inkscape.org/namespaces/inkscape" xmlns:rdf="http://www.w3.org/1999/02/22-rdf-syntax-ns#" xmlns="http://www.w3.org/2000/svg" xmlns:cc="http://web.resource.org/cc/" xmlns:dc="http://purl.org/dc/elements/1.1/" xmlns:sodipodi="http://sodipodi.sourceforge.net/DTD/sodipodi-0.dtd" xmlns:svg="http://www.w3.org/2000/svg" xmlns:ns1="http://sozi.baierouge.fr" xmlns:xlink="http://www.w3.org/1999/xlink" id="svg2" sodipodi:docname="chess.svg" viewBox="0 0 480 280" sodipodi:version="0.32" version="1.0" inkscape:output_extension="org.inkscape.output.svg.inkscape" inkscape:version="0.45.1" sodipodi:docbase="/home/akiross/Works/Painting">
  <sodipodi:namedview id="base" bordercolor="#666666" inkscape:pageshadow="2" guidetolerance="10" pagecolor="#ffffff" gridtolerance="10000" inkscape:window-height="946" width="480px" inkscape:zoom="1" objecttolerance="10" height="280px" borderopacity="1.0" inkscape:current-layer="layer1" inkscape:cx="281.70289" inkscape:cy="111.2768" inkscape:window-y="0" inkscape:window-x="0" inkscape:window-width="1272" inkscape:pageopacity="0.0" inkscape:document-units="px"/>
  <g id="layer1" inkscape:label="Layer 1" inkscape:groupmode="layer" transform="translate(-30.212 -26.938)">
    <path id="WPawn" style="stroke-linejoin:round;stroke:#dedede;stroke-linecap:round;stroke-width:5;fill:#bababa" inkscape:label="White Pawn" d="m79.712 46.438c-9.108 0-16.5 7.392-16.5 16.5 0 6.556 3.831 12.183 9.375 14.843-0.424 37.769-17.844 13.009-17.844 33.309l-0.031 5.97h49.968l-0.03-5.97c0-20.3-17.389 4.46-17.813-33.309 5.53-2.666 9.375-8.297 9.375-14.843 0-9.108-7.392-16.5-16.5-16.5z"/>
    <path id="WRook" sodipodi:nodetypes="cccccccccccccc" style="stroke-linejoin:round;stroke:#dedede;stroke-linecap:round;stroke-width:5;fill:#bababa" inkscape:label="White Rook" d="m122.29 46.438l0.03 6c0 30.198 0.76 54.902 24.94 68.862 24.52-14.16 24.97-37.721 24.97-68.862v-6h-8.63v8.402h-12v-8.402h-8.66v8.402h-12.03v-8.402h-8.62z"/>
    <path id="WKnight" sodipodi:nodetypes="cccczcczcc" style="stroke-linejoin:round;stroke:#dedede;stroke-linecap:round;stroke-width:5;fill:#bababa" inkscape:label="White Knight" d="m213.18 65.212l-17.25 16.125 8.25 9.5 18.25-6.25s-10.2 5.698-19 14.5c-8.88 8.883-7.05 25.683-3.87 32.753h49.62c-19.5-24 16.69-47.59 3.75-70.003-12.6-21.824-32.88-18.444-45.12-2.372 1.87 1.867 3.65 4.02 5.37 5.747z"/>
    <path id="WBishop" style="stroke-linejoin:round;stroke:#dedede;stroke-linecap:round;stroke-width:5;fill:#bababa" inkscape:label="White Bishop" d="m301.41 46.438l-21.38 17.75 7.88 22.593c-4.1 3.69-6.69 9.026-6.69 14.969 0 6.84 3.44 12.89 8.66 16.53-7.55 0.64-12.72 1.86-12.72 3.28 0 1.68 7.15 3.05 16.96 3.53-1.67 20.62-17.71 3.71-17.71 23.19v5.97h49.93v-5.97c0-19.47-16.03-2.62-17.72-23.19 9.83-0.48 17.04-1.85 17.04-3.53 0-1.42-5.21-2.64-12.75-3.28 5.22-3.64 8.62-9.68 8.62-16.53 0-5.927-2.55-11.249-6.62-14.938l7.87-22.624-21.37-17.75zm-0.03 13.437c0.62 0 1.12 0.502 1.12 1.125v5.438h5.66c0.62 0 1.12 0.418 1.12 0.937s-0.5 0.937-1.12 0.937h-5.66v9.438c0 0.623-0.5 1.125-1.12 1.125-0.63 0-1.13-0.502-1.13-1.125v-9.438h-5.66c-0.62 0-1.12-0.418-1.12-0.937s0.5-0.937 1.12-0.937h5.66v-5.438c0-0.623 0.5-1.125 1.13-1.125z"/>
    <path id="WQueen" sodipodi:nodetypes="cccccccscsccccccscsccccccc" style="stroke-linejoin:round;stroke:#dedede;stroke-linecap:round;stroke-width:5;fill:#bababa" inkscape:label="White Queen" d="m378.42 46.438l-5.34 19.843-10.66-7.281-1.25 16.719-10.22-1.688 10.41 24.157h0.38c-2.18 3.212-3.47 7.112-3.47 11.282 0 7.15 3.75 13.39 9.37 16.97-8.1 0.61-13.72 1.89-13.72 3.37 0 1.69 7.27 3.09 17.22 3.57-1.85 21.98-17.69 24.67-17.69 35.31v5.97h49.94l-0.03-5.97c0-9.74-15.83-12.93-17.66-35.31 9.97-0.48 17.25-1.88 17.25-3.57 0-1.48-5.61-2.76-13.71-3.37 5.61-3.58 9.34-9.82 9.34-16.97 0-4.17-1.26-8.07-3.44-11.282h0.38l10.4-24.157-10.22 1.688-1.28-16.719-10.65 7.281-5.35-19.843z"/>
    <path id="WKing" sodipodi:nodetypes="ccccccccscsccccccscsccccccccc" style="stroke-linejoin:round;stroke:#dedede;stroke-linecap:round;stroke-width:5;fill:#bababa" inkscape:label="White King" d="m452.53 46.438v10.874h-13.4v7.25h13.4v13.376l-18.09 9.286 6.5 15.336c-3.47 3.62-5.6 8.53-5.6 13.94 0 7.5 4.11 14.03 10.19 17.5-8.69 0.82-14.78 2.67-14.78 4.81 0 2.33 7.14 4.28 17 4.97-3.15 18.28-17.22 21-17.22 39.25v5.97h49.94l-0.03-5.97c0-18.4-14.29-19.59-17.28-39.25 9.91-0.69 17.09-2.64 17.09-4.97 0-2.15-6.1-4-14.81-4.81 6.09-3.46 10.22-9.99 10.22-17.5 0-5.15-1.94-9.84-5.13-13.41l7.03-15.866-18.09-9.286v-13.376h13.41v-7.25h-13.41v-10.874h-6.94z"/>
    <path id="BPawn" style="stroke-linejoin:round;stroke:#919191;stroke-linecap:round;stroke-width:5;fill:#404040" inkscape:label="Black Pawn" d="m455.47 215.38c9.11 0 16.5 7.39 16.5 16.5 0 6.55-3.83 12.18-9.38 14.84 0.43 37.77 17.85 13.01 17.85 33.31l0.03 5.97h-49.97l0.03-5.97c0-20.3 17.39 4.46 17.81-33.31-5.53-2.67-9.37-8.3-9.37-14.84 0-9.11 7.39-16.5 16.5-16.5z"/>
    <path id="BRook" sodipodi:nodetypes="cccccccccccccc" style="stroke-linejoin:round;stroke:#919191;stroke-linecap:round;stroke-width:5;fill:#404040" inkscape:label="Black Rook" d="m412.89 211.14l-0.03 6c0 30.19-0.76 54.9-24.94 68.86-24.52-14.16-24.97-37.72-24.97-68.86v-6h8.63v8.4h12v-8.4h8.66v8.4h12.03v-8.4h8.62z"/>
    <path id="BKnight" sodipodi:nodetypes="cccczcczcc" style="stroke-linejoin:round;stroke:#919191;stroke-linecap:round;stroke-width:5;fill:#404040" inkscape:label="Black Knight" d="m322 219.38l17.25 16.12-8.25 9.5-18.25-6.25s10.2 5.7 19 14.5c8.88 8.88 7.05 25.68 3.87 32.75h-49.62c19.5-24-16.69-47.59-3.75-70 12.6-21.82 32.88-18.44 45.12-2.37-1.87 1.87-3.65 4.02-5.37 5.75z"/>
    <path id="BBishop" style="stroke-linejoin:round;stroke:#919191;stroke-linecap:round;stroke-width:5;fill:#404040" inkscape:label="Black Bishop" d="m233.77 178.19l21.38 17.75-7.88 22.59c4.1 3.69 6.69 9.03 6.69 14.97 0 6.84-3.44 12.89-8.65 16.53 7.54 0.64 12.71 1.86 12.71 3.28 0 1.68-7.15 3.05-16.96 3.53 1.67 20.62 17.71 3.71 17.71 23.19v5.97h-49.93v-5.97c0-19.47 16.03-2.62 17.72-23.19-9.83-0.48-17.04-1.85-17.04-3.53 0-1.42 5.21-2.64 12.75-3.28-5.22-3.64-8.62-9.68-8.62-16.53 0-5.93 2.55-11.25 6.62-14.94l-7.87-22.62 21.37-17.75zm0.04 13.43c-0.63 0-1.13 0.51-1.13 1.13v5.44h-5.66c-0.62 0-1.12 0.42-1.12 0.93 0 0.52 0.5 0.94 1.12 0.94h5.66v9.44c0 0.62 0.5 1.12 1.13 1.12 0.62 0 1.12-0.5 1.12-1.12v-9.44h5.66c0.62 0 1.12-0.42 1.12-0.94 0-0.51-0.5-0.93-1.12-0.93h-5.66v-5.44c0-0.62-0.5-1.13-1.12-1.13z"/>
    <path id="BQueen" sodipodi:nodetypes="cccccccscsccccccscsccccccc" style="stroke-linejoin:round;stroke:#919191;stroke-linecap:round;stroke-width:5;fill:#404040" inkscape:label="Black Queen" d="m156.76 157.78l5.34 19.84 10.66-7.28 1.25 16.72 10.22-1.68-10.41 24.15h-0.38c2.18 3.22 3.47 7.11 3.47 11.28 0 7.16-3.75 13.4-9.37 16.97 8.1 0.62 13.72 1.9 13.72 3.38 0 1.68-7.27 3.08-17.22 3.56 1.85 21.99 17.69 24.67 17.69 35.31v5.97h-49.94l0.03-5.97c0-9.74 15.83-12.92 17.66-35.31-9.97-0.48-17.25-1.88-17.25-3.56 0-1.48 5.62-2.76 13.71-3.38-5.61-3.57-9.34-9.82-9.34-16.97 0-4.17 1.26-8.06 3.44-11.28h-0.38l-10.4-24.15 10.22 1.68 1.28-16.72 10.65 7.28 5.35-19.84z"/>
    <path id="BKing" sodipodi:nodetypes="ccccccccscsccccccscsccccccccc" style="stroke-linejoin:round;stroke:#919191;stroke-linecap:round;stroke-width:5;fill:#404040" inkscape:label="Black King" d="m82.649 143.44v10.87h13.407v7.25h-13.407v13.38l18.091 9.28-6.497 15.34c3.468 3.62 5.594 8.53 5.594 13.94 0 7.5-4.105 14.03-10.188 17.5 8.697 0.82 14.781 2.67 14.781 4.81 0 2.33-7.138 4.28-16.999 4.97 3.149 18.28 17.219 21 17.219 39.25v5.97h-49.938l0.031-5.97c0-18.4 14.287-19.59 17.281-39.25-9.91-0.69-17.093-2.64-17.093-4.97 0-2.15 6.099-4 14.812-4.81-6.095-3.46-10.219-9.99-10.219-17.5 0-5.15 1.941-9.84 5.125-13.41l-7.031-15.87 18.094-9.28v-13.38h-13.406v-7.25h13.406v-10.87h6.937z"/>
  </g>
  <metadata>
    <rdf:RDF>
      <cc:Work>
        <dc:format>image/svg+xml</dc:format>
        <dc:type rdf:resource="http://purl.org/dc/dcmitype/StillImage"/>
        <cc:license rdf:resource="http://creativecommons.org/licenses/publicdomain/"/>
        <dc:publisher>
          <cc:Agent rdf:about="http://openclipart.org/">
            <dc:title>Openclipart</dc:title>
          </cc:Agent>
        </dc:publisher>
        <dc:title>Chess Set</dc:title>
        <dc:date>2008-01-21T17:51:38</dc:date>
        <dc:description>A set of black and white chess pieces.</dc:description>
        <dc:source>https://openclipart.org/detail/11373/chess-set-by-akiross</dc:source>
        <dc:creator>
          <cc:Agent>
            <dc:title>akiross</dc:title>
          </cc:Agent>
        </dc:creator>
        <dc:subject>
          <rdf:Bag>
            <rdf:li>cartoon</rdf:li>
            <rdf:li>chess</rdf:li>
            <rdf:li>game</rdf:li>
            <rdf:li>how i did it</rdf:li>
          </rdf:Bag>
        </dc:subject>
      </cc:Work>
      <cc:License rdf:about="http://creativecommons.org/licenses/publicdomain/">
        <cc:permits rdf:resource="http://creativecommons.org/ns#Reproduction"/>
        <cc:permits rdf:resource="http://creativecommons.org/ns#Distribution"/>
        <cc:permits rdf:resource="http://creativecommons.org/ns#DerivativeWorks"/>
      </cc:License>
    </rdf:RDF>
  </metadata>
</svg>