<?xml version="1.0" encoding="UTF-8" standalone="no"?>
<!-- Created with Inkscape (http://www.inkscape.org/) -->
<svg xmlns:inkscape="http://www.inkscape.org/namespaces/inkscape" xmlns:rdf="http://www.w3.org/1999/02/22-rdf-syntax-ns#" xmlns="http://www.w3.org/2000/svg" xmlns:cc="http://creativecommons.org/ns#" xmlns:dc="http://purl.org/dc/elements/1.1/" xmlns:sodipodi="http://sodipodi.sourceforge.net/DTD/sodipodi-0.dtd" xmlns:svg="http://www.w3.org/2000/svg" xmlns:ns1="http://sozi.baierouge.fr" xmlns:xlink="http://www.w3.org/1999/xlink" id="svg2" sodipodi:docname="hammer_and_sickle_25416.svg" viewBox="0 0 643.09 481" version="1.1" inkscape:version="0.47 r22583">
  <sodipodi:namedview id="base" bordercolor="#666666" inkscape:pageshadow="2" inkscape:window-y="25" pagecolor="#ffffff" inkscape:window-height="819" inkscape:window-maximized="1" inkscape:zoom="0.17203101" inkscape:window-x="0" showgrid="false" borderopacity="1.0" inkscape:current-layer="layer1" inkscape:cx="-715.78991" inkscape:cy="-377.01109" inkscape:window-width="1440" inkscape:pageopacity="0.0" inkscape:document-units="px">
    <inkscape:grid id="grid2832" enabled="true" visible="true" snapvisiblegridlinesonly="true" type="xygrid" empspacing="5"/>
  </sodipodi:namedview>
  <g id="layer1" inkscape:label="Ebene 1" inkscape:groupmode="layer" transform="translate(-2727.8 -696.99)">
    <path id="path2968" style="fill:#ff0000" d="m3172.3 705.69-198.91 5.6024-6.2951 65.12 77.047-2.0783s-3.4936 63.008-9.0963 107.83c-2.2654 18.124-8.5873 69.804-15.12 123.43-67.08-13.933-88.917-54.783-101.14-77.198-16.808-30.815-11.205-89.637-11.205-89.637l-147.08-7.018-21.024 68.644 116.26-12.62s-10.434 80.061 26.626 125.36c26.253 32.09 67.624 66.959 126.66 82.258-3.6824 30.302-9.0059 73.915-9.0059 73.915l85.451-1.3855s1.9923-28.526 4.5481-65.06c0.3519-0.02 0.7014-0.039 1.0542-0.06 104.46-6.485 186.04-58.986 234.61-123.97 47.819-63.986 39.31-129.39 7.7108-184.88-34.437-60.469-103.64-85.451-103.64-85.451s43.197 40.458 58.102 90.33c18.209 60.93-24.492 191.19-171.56 208.7-6.8316 0.8133-13.435 1.4672-19.789 1.9277 4.7187-68.575 9.3197-136.9 9.9698-152.5 1.4007-33.616 8.4035-83.342 8.4035-83.342l113.46-0.69276-56.023-67.228z"/>
  </g>
  <metadata>
    <rdf:RDF>
      <cc:Work>
        <dc:format>image/svg+xml</dc:format>
        <dc:type rdf:resource="http://purl.org/dc/dcmitype/StillImage"/>
        <cc:license rdf:resource="http://creativecommons.org/licenses/publicdomain/"/>
        <dc:publisher>
          <cc:Agent rdf:about="http://openclipart.org/">
            <dc:title>Openclipart</dc:title>
          </cc:Agent>
        </dc:publisher>
        <dc:title>Hammer and Sickle</dc:title>
        <dc:date>2013-03-03T11:39:51</dc:date>
        <dc:description/>
        <dc:source>https://openclipart.org/detail/175437/hammer-and-sickle-by-worker-175437</dc:source>
        <dc:creator>
          <cc:Agent>
            <dc:title>worker</dc:title>
          </cc:Agent>
        </dc:creator>
        <dc:subject>
          <rdf:Bag>
            <rdf:li>and</rdf:li>
            <rdf:li>class</rdf:li>
            <rdf:li>communism</rdf:li>
            <rdf:li>hammer</rdf:li>
            <rdf:li>proletariat</rdf:li>
            <rdf:li>revolution</rdf:li>
            <rdf:li>sickle</rdf:li>
            <rdf:li>socialism</rdf:li>
            <rdf:li>star</rdf:li>
            <rdf:li>worker</rdf:li>
            <rdf:li>working</rdf:li>
          </rdf:Bag>
        </dc:subject>
      </cc:Work>
      <cc:License rdf:about="http://creativecommons.org/licenses/publicdomain/">
        <cc:permits rdf:resource="http://creativecommons.org/ns#Reproduction"/>
        <cc:permits rdf:resource="http://creativecommons.org/ns#Distribution"/>
        <cc:permits rdf:resource="http://creativecommons.org/ns#DerivativeWorks"/>
      </cc:License>
    </rdf:RDF>
  </metadata>
</svg>