<?xml version="1.0" encoding="UTF-8" standalone="no"?>
<!-- Created with Inkscape (http://www.inkscape.org/) -->
<svg xmlns:inkscape="http://www.inkscape.org/namespaces/inkscape" xmlns:rdf="http://www.w3.org/1999/02/22-rdf-syntax-ns#" xmlns="http://www.w3.org/2000/svg" xmlns:sodipodi="http://sodipodi.sourceforge.net/DTD/sodipodi-0.dtd" xmlns:ns1="http://sozi.baierouge.fr" xmlns:cc="http://creativecommons.org/ns#" xmlns:xlink="http://www.w3.org/1999/xlink" xmlns:dc="http://purl.org/dc/elements/1.1/" id="svg2" sodipodi:docname="swirling-vortex2.svg" viewBox="0 0 700 604.27" version="1.1" inkscape:version="0.48.3.1 r9886">
  <defs id="defs4">
    <radialGradient id="radialGradient4664" gradientUnits="userSpaceOnUse" cy="-5471.9" cx="232" gradientTransform="matrix(1 0 0 .69593 0 -1736.3)" r="680.32" inkscape:collect="always">
      <stop id="stop4632" style="stop-color:#ff0015" offset="0"/>
      <stop id="stop4634" style="stop-color:#0200ff" offset="1"/>
    </radialGradient>
    <radialGradient id="radialGradient4666" gradientUnits="userSpaceOnUse" cy="-4967.6" cx="580" gradientTransform="matrix(1.088 .031433 -.036444 .79398 -580.07 -1616.4)" r="680.32" inkscape:collect="always">
      <stop id="stop4521-3" style="stop-color:#ffffff;stop-opacity:.76256" offset="0"/>
      <stop id="stop4523-8" style="stop-color:#313131" offset="1"/>
    </radialGradient>
    <radialGradient id="radialGradient4668" gradientUnits="userSpaceOnUse" cy="264.79" cx="113.13" gradientTransform="matrix(1 0 0 1.0586 0 -15.513)" r="249.78" inkscape:collect="always">
      <stop id="stop4549-3" style="stop-color:#ceffac;stop-opacity:.24658" offset="0"/>
      <stop id="stop4551-7" style="stop-color:#67c0e4" offset="1"/>
    </radialGradient>
  </defs>
  <sodipodi:namedview id="base" fit-margin-left="0" inkscape:zoom="0.5" borderopacity="1.0" inkscape:current-layer="layer1" inkscape:cx="688.1801" inkscape:cy="249.85513" inkscape:window-maximized="1" showgrid="false" fit-margin-right="0" inkscape:document-units="px" bordercolor="#666666" inkscape:window-x="0" inkscape:window-y="24" fit-margin-bottom="0" inkscape:window-width="1920" inkscape:pageopacity="0.0" inkscape:pageshadow="2" pagecolor="#ffffff" inkscape:window-height="1124" showborder="false" fit-margin-top="0"/>
  <g id="layer1" inkscape:label="Layer 1" inkscape:groupmode="layer" transform="translate(448.32 5490.6)">
    <g id="g4657" inkscape:export-ydpi="89.850258" inkscape:export-xdpi="89.850258" inkscape:export-filename="/home/katie/Desktop/g4657.png" transform="matrix(.51446 0 0 .51446 -217.67 -2372.5)">
      <rect id="rect2985-1-6-0" style="fill-rule:evenodd;fill:url(#radialGradient4664)" height="946.91" width="1360.6" y="-6017.9" x="-448.32"/>
      <rect id="rect2985-1-6-1-2" style="opacity:.95062;fill-rule:evenodd;fill:url(#radialGradient4666)" height="954.91" width="1360.6" y="-6019.9" x="-448.32"/>
      <path id="path3775-1-3-5-7" style="stroke:url(#radialGradient4668);stroke-dasharray:18.35678968, 9.17839484;stroke-width:2.2946;fill:none" sodipodi:revolution="11.611003" sodipodi:radius="278.85352" d="m99.09 250.14c-0.25289-0.0397-0.34034-0.34244-0.27947-0.5585 0.12641-0.44867 0.66963-0.58673 1.0675-0.44138 0.71284 0.26046 0.91582 1.1396 0.64036 1.7873-0.44742 1.052-1.7687 1.3351-2.7408 0.87787-1.4722-0.69245-1.8513-2.5714-1.1554-3.9484 1.0002-1.979 3.5611-2.471 5.4289-1.4744 2.5774 1.3751 3.1999 4.7501 1.8364 7.2-1.8213 3.2724-6.1502 4.0438-9.2782 2.2428-4.0684-2.3425-5.0079-7.7722-2.6951-11.679 2.9424-4.97 9.6265-6.0974 14.417-3.1946 5.9812 3.6245 7.3171 11.723 3.7428 17.506-4.3922 7.1061-14.071 8.6717-20.96 4.3409-8.3486-5.2485-10.166-16.68-4.9902-24.792 6.1967-9.7123 19.559-11.803 29.014-5.692 11.201 7.2395 13.589 22.716 6.4476 33.639-8.38 12.818-26.159 15.527-38.678 7.258-14.567-9.6209-17.621-29.896-8.1246-44.143 10.965-16.451 33.935-19.874 50.044-9.0484 18.473 12.415 22.292 38.283 10.031 56.392-13.973 20.637-42.949 24.876-63.199 11.072-22.945-15.64-27.633-47.94-12.175-70.47 17.423-25.4 53.256-30.56 78.226-13.34 28.007 19.321 33.67 58.916 14.565 86.465-21.336 30.766-64.918 36.96-95.203 15.855-33.683-23.47-40.434-71.27-17.211-104.44 25.73-36.76 77.979-44.1 114.21-18.64 39.99 28.12 47.95 85.06 20.12 124.5-30.62 43.39-92.503 51.99-135.31 21.67-46.964-33.26-56.242-100.32-23.302-146.67 36.029-50.7 108.52-60.68 158.58-24.99 54.61 38.93 65.33 117.11 26.76 171.05-41.97 58.69-126.1 70.18-184.1 28.59-62.947-45.14-75.241-135.47-30.495-197.71 48.455-67.386 145.26-80.514 211.9-32.48 72.02 51.91 86.02 155.46 34.55 226.7-55.51 76.82-166.08 91.71-242.09 36.67-81.809-59.25-97.64-177.11-38.87-258.09 63.133-86.986 188.57-103.78 274.69-41.149 92.36 67.169 110.16 200.46 43.52 291.93-71.36 97.92-212.79 116.76-309.79 45.95-103.69-75.69-123.6-225.56-48.471-328.29 80.18-109.64 238.77-130.66 347.43-51.066 115.8 84.826 137.96 252.44 53.74 367.23-54.53 74.33-145.41 116.18-237.27 110.86" transform="matrix(1.9626 0 0 1.9626 9.7308 -5988.6)" sodipodi:argument="-65.008194" sodipodi:cy="249.92854" sodipodi:cx="99.254402" sodipodi:expansion="2.48" sodipodi:type="spiral" sodipodi:t0="0.060511664"/>
      <path id="path3755-7-2-0-4-3-9-1" d="m202.09-6060.9 1.0625 145.56c97.695-4.863 197.51 22.264 280.59 83.125 48.127 35.254 86.98 78.701 116.25 127.16l107.62-63.219c-100.78-174.73-289.4-292.34-505.53-292.62zm19.656 235.38c-5.9886 0.022-11.964 0.2372-17.938 0.5624l0.5625 78c60.098-3.6256 121.76 12.534 173.12 49.563 30.517 21.997 55.03 49.34 73.406 79.875l69.188-40.625c-23.44-38.839-54.622-73.644-93.312-101.78-60.994-44.357-133.3-65.862-205.03-65.594zm-528.31 59.969c-48.514 85.155-76.25 183.77-76.25 288.78 0 109.65 30.253 212.21 82.812 299.88l165.25-96.813c-77.941-119.83-87.996-277.18-24.25-407.91l-147.56-83.938zm224.59 127.78c-49.057 103.14-40.273 226.71 21.812 320.38l64.063-37.563c-48.374-71.3-55.983-165.8-19.499-245.1l-66.375-37.75zm539.87 303.12c-5.939 11.152-12.674 21.995-20.219 32.437-55.498 76.808-142.57 118.08-231.75 121.22l0.625 84.125c113.76-3.9595 224.9-56.489 296.06-154.16 10.063-13.811 19.041-28.186 26.906-42.969l-71.625-40.656zm154.12 87.5c-10.096 18.966-21.614 37.403-34.594 55.094-86.451 117.83-225.28 188.8-370.16 193.72l0.78125 105.47c215.95-2.4547 403.72-122 502.75-298.22l-98.781-56.062z" style="fill-rule:evenodd;fill:#585858" inkscape:connector-curvature="0"/>
      <path id="path3755-7-2-0-4-6-6" d="m297.16-6032.3-19.875 141.41c61.136 4.0917 121.79 20.767 177.38 50.5l68.75-113.66c-67.71-40.618-144.34-67.921-226.25-78.25zm-32.531 231.28-10.938 77.75c38.592 1.5213 77.077 11.226 112.38 29.375l41.094-67.938c-44.712-23.519-93.475-36.477-142.53-39.188zm-20.25 143.91-7.7812 55.219c22.251-0.347 44.704 4.3 65.312 14.125l29.188-48.281c-27.283-13.602-57.038-20.545-86.719-21.063zm-586.62 57.75c-12.104 46.844-18.562 95.954-18.562 146.56 0 31.177 2.4476 61.775 7.1562 91.625l183.69-28.188c-11.295-54.359-11.805-110.98-1.1562-165.97l-171.12-44.031zm579.59 42.281c-2.3713-0.01-4.7363 0.062-7.0938 0.2187l-2.5625 18.281 0.125 17.125c10.545-1.2564 21.43 0.094 31.531 4.0625l18.781-31.031c-12.966-5.7571-26.917-8.6263-40.781-8.6563zm-323.34 23.656c-8.0516 43.433-7.2537 88.085 2.0312 130.88l73.906-11.344c-7.5347-32.85-8.4708-67.194-2.625-100.69l-73.312-18.844zm135.38 34.812c-3.993 25.042-2.8879 50.684 3.125 75.094l51.844-7.9375c-4.7589-17.439-5.9532-35.846-3.4688-53.906l-51.5-13.25zm184.87 3c-2.0962-0.01-4.1907 0.1662-6.25 0.5l0.15625 18.406c2.2122-0.563 4.5472-0.6896 6.8438-0.4375l10.188-16.844c-3.5703-1.0771-7.2588-1.6109-10.938-1.625zm-91.812 20.938c-1.2896 12.414-0.0352 24.973 3.6875 36.781l32.562-5c-2.9013-7.4041-4.1875-15.437-3.8125-23.438l-32.438-8.3437zm56.656 14.594c0.31102 4.7309 1.6566 9.3612 4 13.469l11.938-1.8437-0.8125 5.6875 3.6875-6.125 3-0.4688 0.9375 3.625 3.0625-1.8124c-0.8851-0.2692-1.7491-0.6255-2.5625-1.0938-3.1588-1.8188-5.212-4.6941-6.1875-7.9375l-0.125 0.8437-16.938-4.3437zm30.469 7.8437-0.125 1.5938 3.0312-0.5-1.0625-0.5938 0.0312-0.031-1.875-0.4688zm-3.75 4.9376 0.125 14.969c0.60505 0.033 1.2081 0.07 1.8125 0.062l1.25-13.625-0.53125-1.0938c-0.88658-0.013-1.7848-0.1167-2.6562-0.3124zm1.9375 15.031-0.65625 7 3.8438 14.906c4.6308-0.4444 9.1897-1.5393 13.5-3.25l-3.3125-6.9374 4.1562 6.625c1.0732-0.4495 2.1175-0.9093 3.1562-1.4376l-13.375-17.969c-2.3677 0.6888-4.827 1.0355-7.3125 1.0625zm38.719 41.125c-1.6379 1.009-3.3279 1.9331-5.0312 2.8125l20.938 33.25c2.5406-1.4406 5.0661-2.9546 7.5-4.5937l-23.406-31.469zm-9 4.75c-6.0251 2.6856-12.378 4.5938-18.875 5.7188l9.875 38.406c8.9404-1.8962 17.678-4.7683 25.969-8.6562l-16.969-35.469zm61.719 66.125c-3.4354 2.4277-6.9688 4.7007-10.562 6.8438l31.938 50.656c4.8692-2.9866 9.632-6.1874 14.281-9.5625l-35.656-47.938zm-23.5 13.812c-11.143 5.3626-22.84 9.4378-34.844 12.25l15.031 58.375c15.733-3.8871 31.066-9.4053 45.688-16.531l-25.875-54.094zm101.62 91.219c-6.1044 4.5031-12.352 8.7605-18.75 12.75l44.375 70.438c8.1918-5.1619 16.219-10.647 24.031-16.469l-49.656-66.719zm-44.938 27.281c-18.776 9.2104-38.438 16.39-58.625 21.531l20.875 81.031c25.376-6.5881 50.097-15.72 73.719-27.344l-35.969-75.219zm151.75 116.28c-9.7321 7.3425-19.751 14.305-30 20.875l58.781 93.281c12.762-7.9901 25.176-16.482 37.25-25.406l-66.031-88.75zm-74.125 46c-29.071 14.586-59.604 26.227-91.062 34.75l26.906 104.56c38.832-9.7345 76.129-23.368 111.44-40.437l-47.31-98.7z" style="fill-rule:evenodd;fill:#cdbcff" inkscape:connector-curvature="0"/>
    </g>
  </g>
  <metadata>
    <rdf:RDF>
      <cc:Work>
        <dc:format>image/svg+xml</dc:format>
        <dc:type rdf:resource="http://purl.org/dc/dcmitype/StillImage"/>
        <cc:license rdf:resource="http://creativecommons.org/licenses/publicdomain/"/>
        <dc:publisher>
          <cc:Agent rdf:about="http://openclipart.org/">
            <dc:title>Openclipart</dc:title>
          </cc:Agent>
        </dc:publisher>
      </cc:Work>
      <cc:License rdf:about="http://creativecommons.org/licenses/publicdomain/">
        <cc:permits rdf:resource="http://creativecommons.org/ns#Reproduction"/>
        <cc:permits rdf:resource="http://creativecommons.org/ns#Distribution"/>
        <cc:permits rdf:resource="http://creativecommons.org/ns#DerivativeWorks"/>
      </cc:License>
    </rdf:RDF>
  </metadata>
</svg>